<svg version="1.1" viewBox="0.0 0.0 735.6902887139107 698.6351706036745" fill="none" stroke="none" stroke-linecap="square" stroke-miterlimit="10" xmlns:xlink="http://www.w3.org/1999/xlink" xmlns="http://www.w3.org/2000/svg"><clipPath id="p.0"><path d="m0 0l735.6903 0l0 698.6352l-735.6903 0l0 -698.6352z" clip-rule="nonzero"/></clipPath><g clip-path="url(#p.0)"><path fill="#000000" fill-opacity="0.0" d="m0 0l735.6903 0l0 698.6352l-735.6903 0z" fill-rule="evenodd"/><defs><linearGradient id="p.1" gradientUnits="userSpaceOnUse" gradientTransform="matrix(12.345981628479054 0.0 0.0 12.345981628479054 0.0 0.0)" spreadMethod="pad" x1="20.31179345779443" y1="11.479380005072116" x2="29.041704594057755" y2="20.209323528582903"><stop offset="0.0" stop-color="#1077d2"/><stop offset="0.9" stop-color="#a4c2f4"/><stop offset="1.0" stop-color="#093153"/></linearGradient></defs><path fill="url(#p.1)" d="m304.86353 141.72441l0 0c0 -29.875565 24.035614 -54.09449 53.685028 -54.09449l0 0c14.238159 0 27.893158 5.6992264 37.96106 15.84391c10.067902 10.144684 15.7239685 23.903831 15.7239685 38.25058l0 0c0 29.875565 -24.035583 54.094482 -53.685028 54.094482l0 0c-29.649414 0 -53.685028 -24.218918 -53.685028 -54.094482z" fill-rule="evenodd"/><defs><linearGradient id="p.2" gradientUnits="userSpaceOnUse" gradientTransform="matrix(12.345980748152893 0.0 0.0 12.345980748152893 0.0 0.0)" spreadMethod="pad" x1="43.227322066209084" y1="43.74977324896015" x2="51.957360052185784" y2="35.01995782152037"><stop offset="0.0" stop-color="#93c47d"/><stop offset="0.87" stop-color="#39751f"/><stop offset="1.0" stop-color="#203e13"/></linearGradient></defs><path fill="url(#p.2)" d="m480.0 432.35434l0 0c0 -29.87558 24.035614 -54.094482 53.68506 -54.094482l0 0c14.238159 0 27.893127 5.6992188 37.96106 15.843903c10.067871 10.144684 15.723938 23.903809 15.723938 38.25058l0 0c0 29.87555 -24.035583 54.094482 -53.684998 54.094482l0 0c-29.649445 0 -53.68506 -24.218933 -53.68506 -54.094482z" fill-rule="evenodd"/><defs><linearGradient id="p.3" gradientUnits="userSpaceOnUse" gradientTransform="matrix(12.345981335125549 0.0 0.0 12.345981335125549 0.0 0.0)" spreadMethod="pad" x1="25.53053062404959" y1="36.48341465971168" x2="16.800684054850866" y2="27.75340698471404"><stop offset="0.0" stop-color="#ffd966"/><stop offset="0.91" stop-color="#bc8e03"/><stop offset="1.0" stop-color="#795b04"/></linearGradient></defs><path fill="url(#p.3)" d="m153.73491 450.42258l0 0c0 -29.87558 24.035614 -54.094482 53.685043 -54.094482l0 0c14.238159 0 27.893158 5.6992188 37.961044 15.843903c10.067902 10.144684 15.723984 23.90384 15.723984 38.25058l0 0c0 29.87555 -24.035599 54.094482 -53.685028 54.094482l0 0c-29.64943 0 -53.685043 -24.218933 -53.685043 -54.094482z" fill-rule="evenodd"/><defs><linearGradient id="p.4" gradientUnits="userSpaceOnUse" gradientTransform="matrix(21.799033785508964 0.0 0.0 21.799033785508964 0.0 0.0)" spreadMethod="pad" x1="0.9739499787255435" y1="9.365675109818994" x2="16.38816607831048" y2="24.7799482362774"><stop offset="0.0" stop-color="#1077d2"/><stop offset="0.9" stop-color="#a4c2f4"/><stop offset="1.0" stop-color="#093153"/></linearGradient></defs><path fill="url(#p.4)" d="m120.0023 112.89881c3.6181107 -1.184166 5.985565 -2.237091 15.3937 1.1837311c9.408142 3.4208221 21.778214 8.551613 41.055115 19.34121c19.276901 10.789581 55.000885 33.48819 74.60631 45.396317c19.605423 11.908142 29.473312 18.48645 43.02623 26.052505c13.552948 7.56604 23.15924 16.05423 38.29135 19.343826c15.132111 3.2895813 31.842957 6.7095337 52.501312 0.39369202c20.658356 -6.3158264 47.83026 -24.735779 71.44882 -38.28871c23.61853 -13.552933 51.18329 -32.173218 70.26245 -43.02887c19.079163 -10.855637 34.2782 -17.565613 44.212585 -22.10498c9.934387 -4.5393753 10.78833 -5.1968536 15.393738 -5.131233c4.6054077 0.06561279 9.804443 3.0905457 12.238831 5.524933c2.4343872 2.4343796 2.3018188 5.8573914 2.3674316 9.0813675c0.06561279 3.2239685 0.46063232 3.1570435 -1.9737549 10.262466c-2.4343262 7.105423 -7.040222 22.896317 -12.632507 32.37007c-5.592285 9.473755 -9.013123 14.340775 -20.921265 24.472443c-11.908142 10.131668 -28.0932 22.106735 -50.527588 36.31758c-22.434357 14.210861 -63.749756 38.81584 -84.078705 48.947525c-20.32898 10.131653 -21.907715 9.803131 -37.89502 11.842499c-15.987335 2.0393677 -41.77823 2.3018494 -58.02887 0.39370728c-16.250671 -1.9081421 -20.856537 -3.3556519 -39.475067 -11.842529c-18.61856 -8.486877 -48.486008 -24.999542 -72.23622 -39.078735c-23.750229 -14.079178 -53.619873 -31.18547 -70.26509 -45.396317c-16.645233 -14.210846 -23.093185 -26.908142 -29.606308 -39.868774c-6.5131226 -12.960617 -8.94619 -30.197723 -9.472443 -37.895004c-0.5262451 -7.6972885 2.6968536 -7.104553 6.3149643 -8.288719z" fill-rule="evenodd"/><defs><linearGradient id="p.5" gradientUnits="userSpaceOnUse" gradientTransform="matrix(-10.077480882764634 20.663205324132786 -20.663205324132786 -10.077480882764634 0.0 0.0)" spreadMethod="pad" x1="6.938059365049586" y1="-11.941356403695329" x2="21.549337937897416" y2="-26.552263039969038"><stop offset="0.0" stop-color="#93c47d"/><stop offset="0.87" stop-color="#39751f"/><stop offset="1.0" stop-color="#203e13"/></linearGradient></defs><path fill="url(#p.5)" d="m664.6977 237.77661c-0.5214844 3.7697754 -0.612854 6.358322 -7.809143 13.3125305c-7.196228 6.954193 -17.226807 15.820404 -35.36841 28.41272c-18.141602 12.592285 -54.19055 34.743744 -73.48108 47.141083c-19.290588 12.397308 -29.525269 18.381012 -42.262268 27.242859c-12.7369995 8.861877 -24.57312 13.773621 -34.1597 25.928314c-9.586578 12.154694 -19.982086 25.670776 -23.359802 46.99991c-3.377716 21.329132 1.2658691 53.814728 3.0935364 80.974884c1.8276367 27.160126 6.479126 60.086517 7.872406 81.98605c1.3933105 21.899597 0.7619934 38.496277 0.48736572 49.411438c-0.27459717 10.915222 -0.058044434 11.97052 -2.1351013 16.079773c-2.077057 4.109192 -7.0731506 7.455017 -10.327209 8.575562c-3.2540283 1.1205444 -6.271515 -0.49853516 -9.1970215 -1.8522949c-2.9255066 -1.3538208 -3.0384521 -0.96954346 -8.3559265 -6.270447c-5.3174744 -5.3009033 -17.487305 -16.358826 -23.54895 -25.534912c-6.061615 -9.176086 -8.935608 -14.382385 -12.82077 -29.521545c-3.8851624 -15.13916 -7.55249 -34.928894 -10.490173 -61.313416c-2.9377136 -26.38446 -6.9408875 -74.28827 -7.1360474 -96.99353c-0.19515991 -22.705261 0.7918396 -23.979797 5.965088 -39.238068c5.173279 -15.25824 16.239014 -38.546387 25.074524 -52.311462c8.83551 -13.765045 12.154358 -17.269135 27.938477 -30.27893c15.784119 -13.009827 43.70868 -32.609863 66.766174 -47.779938c23.057495 -15.170105 51.516357 -34.51198 71.578735 -43.240524c20.062378 -8.728546 34.296387 -8.958084 48.795593 -9.130768c14.4991455 -0.17269897 31.052856 5.1944885 38.199463 8.0946045c7.1466064 2.900116 5.201721 5.536331 4.680237 9.306107z" fill-rule="evenodd"/><defs><linearGradient id="p.6" gradientUnits="userSpaceOnUse" gradientTransform="matrix(-12.124644555551571 -20.180268759142777 20.180268759142777 -12.124644555551571 0.0 0.0)" spreadMethod="pad" x1="-6.026010552572547" y1="0.13499856014796052" x2="-20.29548402062542" y2="-14.134737742102653"><stop offset="0.0" stop-color="#ffd966"/><stop offset="0.91" stop-color="#bc8e03"/><stop offset="1.0" stop-color="#795b04"/></linearGradient></defs><path fill="url(#p.6)" d="m292.7446 658.24695c-2.877777 -2.4910278 -4.9991455 -3.9777832 -6.911743 -13.801941c-1.9126282 -9.824097 -3.8848877 -23.067139 -4.5638733 -45.143005c-0.6789856 -22.075867 0.37942505 -64.378784 0.48986816 -87.312164c0.110443115 -22.93335 0.6670532 -34.777283 0.17276001 -50.287903c-0.4942932 -15.51062 1.8338013 -28.1138 -3.1385498 -42.775818c-4.9723206 -14.662048 -10.6458435 -30.744171 -26.69551 -45.19635c-16.049652 -14.452179 -45.82637 -28.25409 -69.60242 -41.516785c-23.776062 -13.262695 -53.926743 -27.298065 -73.053894 -38.059357c-19.127151 -10.7612915 -32.703583 -20.33191 -41.709038 -26.508331c-9.005455 -6.1764526 -10.008587 -6.569702 -12.323685 -10.550354c-2.3151016 -3.9806213 -2.3997154 -9.993744 -1.5669136 -13.333466c0.8328018 -3.339737 3.834568 -4.9886475 6.5637283 -6.7049103c2.7291565 -1.7162476 2.4684067 -2.0203094 9.811222 -3.592636c7.3428116 -1.5723114 23.24717 -5.755829 34.24565 -5.841263c10.998482 -0.08543396 16.9309 0.3401947 31.74524 5.328659c14.814346 4.9884796 33.410645 12.6931 57.14081 24.602203c23.730164 11.909088 66.08995 34.647278 85.24016 46.852417c19.150238 12.205109 19.68158 13.727234 29.661194 26.378296c9.979584 12.651062 23.484253 34.618713 30.216461 49.528015c6.7321777 14.909332 7.86322 19.601868 10.176666 39.927856c2.313446 20.325989 3.5408325 54.424774 3.703949 82.028076c0.16314697 27.603333 0.88290405 62.009644 -2.7251587 83.591736c-3.6080627 21.582153 -11.169586 33.645874 -18.923248 45.901062c-7.753662 12.255188 -21.27304 23.215698 -27.598663 27.630005c-6.3256226 4.4143677 -7.4772034 1.3469238 -10.355011 -1.144043z" fill-rule="evenodd"/></g></svg>